<?xml version="1.0" encoding="UTF-8" standalone="no"?>
<svg
   version="1.1"
   id="svg2"
   width="7359.3198"
   height="4240.3467"
   xmlns="http://www.w3.org/2000/svg"
   xmlns:svg="http://www.w3.org/2000/svg">
	<defs
	   id="defs6" />
	<g
	   id="g8"
	   transform="matrix(1.3333333,0,0,-1.3333333,0,4240.3467)">
		<g
		   id="g10"
		   transform="scale(0.1)">
			<path
			   d="m 7880.36,22361.8 c 0,1056.9 493.73,1553 1545.49,1553 H 10437 c 1051.8,0 1545.5,-496.1 1545.5,-1553 v -586 l -1729.1,-1041.4 v 1724.5 h -536.63 v -4684.3 h 536.63 v 1012.7 l 1729.1,1043.5 v -1959.1 c 0,-1056.9 -493.7,-1553.1 -1545.5,-1553.1 H 9425.85 c -1051.76,0 -1545.49,496.2 -1545.49,1553.1 v 4490.1"
			   style="fill:#181210;fill-opacity:1;fill-rule:nonzero;stroke:none"
			   id="path12" />
			<path
			   d="M 14879.6,17774.6 H 14343 v 4684.3 h 536.6 z m 290.9,6140.2 H 14052 c -1051.7,0 -1545.4,-496.1 -1545.4,-1553 v -4490.1 c 0,-1057 493.7,-1553.1 1545.4,-1553.1 h 1118.5 c 1051.8,0 1545.5,496.1 1545.5,1553.1 v 4490.1 c 0,1056.9 -493.7,1553 -1545.5,1553"
			   style="fill:#181210;fill-opacity:1;fill-rule:nonzero;stroke:none"
			   id="path14" />
			<path
			   d="m 17241.5,23891.5 h 1760.7 l 789.2,-3442.5 h 42.6 v 3442.5 h 1696.8 V 16342 H 19770 l -789.1,3442.5 h -42.6 V 16342 h -1696.8 v 7549.5"
			   style="fill:#181210;fill-opacity:1;fill-rule:nonzero;stroke:none"
			   id="path16" />
			<path
			   d="M 25685.1,21950.2 H 24747 V 16342 h -1796.6 v 5608.2 h -938.1 v 1941.3 h 3672.8 v -1941.3"
			   style="fill:#181210;fill-opacity:1;fill-rule:nonzero;stroke:none"
			   id="path18" />
			<path
			   d="m 28539.2,20602.1 h -536.7 v 1833.4 h 536.7 z m 1836.3,689.6 v 1046.7 c 0,1058.5 -496.8,1553.1 -1541.2,1553.1 H 26166.1 V 16342 h 1836.4 v 2858 h 536.7 v -2858 h 1836.3 v 2268.9 c 0,724.2 -221.5,1083.6 -515.1,1290.1 411.4,346.7 515.1,778.5 515.1,1390.7"
			   style="fill:#181210;fill-opacity:1;fill-rule:nonzero;stroke:none"
			   id="path20" />
			<path
			   d="m 33267.8,17774.6 h -533.5 v 4672.6 h 533.5 z m 289.3,6128.5 H 32445 c -1045.7,0 -1536.5,-496 -1536.5,-1553 v -4478.4 c 0,-1057 490.8,-1553.1 1536.5,-1553.1 h 1112.1 c 1045.7,0 1536.5,496.1 1536.5,1553.1 v 4478.4 c 0,1057 -490.8,1553 -1536.5,1553"
			   style="fill:#181210;fill-opacity:1;fill-rule:nonzero;stroke:none"
			   id="path22" />
			<path
			   d="M 38684.1,18067.6 V 16342 h -3066.6 v 7549.5 h 1836.4 v -5823.9 h 1230.2"
			   style="fill:#181210;fill-opacity:1;fill-rule:nonzero;stroke:none"
			   id="path24" />
			<path
			   d="m 11253.2,13385.5 h -840.5 V 7754.1 H 8646.42 v 5631.4 h -840.51 v 1918.1 h 3447.29 v -1918.1"
			   style="fill:#181210;fill-opacity:1;fill-rule:nonzero;stroke:none"
			   id="path26" />
			<path
			   d="m 13460.3,13578 v -1240.3 h 852.6 v -1509.9 h -852.6 V 9479.7 h 1077.4 V 7754.1 H 11693 v 7549.5 h 2844.7 V 13578 h -1077.4"
			   style="fill:#181210;fill-opacity:1;fill-rule:nonzero;stroke:none"
			   id="path28" />
			<path
			   d="m 14969.1,13773.8 c 0,1056.9 509.2,1553 1610.7,1553 h 697.5 c 1101.4,0 1610.7,-496.1 1610.7,-1553 v -630.7 l -1654.8,-993.9 v 1721.6 h -496.9 v -4684 h 496.9 V 10202 l 1654.8,994.2 V 9283.9 c 0,-1057 -509.3,-1553.1 -1610.7,-1553.1 h -697.5 c -1101.5,0 -1610.7,496.1 -1610.7,1553.1 v 4489.9"
			   style="fill:#181210;fill-opacity:1;fill-rule:nonzero;stroke:none"
			   id="path30" />
			<path
			   d="M 23445.2,15303.6 V 7754.1 H 21674.1 V 10666 h -531 V 7754.1 H 19372 v 7549.5 h 1771.1 v -2912 h 531 v 2912 h 1771.1"
			   style="fill:#181210;fill-opacity:1;fill-rule:nonzero;stroke:none"
			   id="path32" />
			<path
			   d="m 24008,15303.6 h 1715.3 l 669,-3354.6 h 44.9 v 3354.6 h 1632.4 V 7754.1 h -1699.8 l -669,3354.5 h -45 V 7754.1 H 24008 v 7549.5"
			   style="fill:#181210;fill-opacity:1;fill-rule:nonzero;stroke:none"
			   id="path34" />
			<path
			   d="M 30419.6,15303.6 V 7754.1 h -1768.8 v 7549.5 h 1768.8"
			   style="fill:#181210;fill-opacity:1;fill-rule:nonzero;stroke:none"
			   id="path36" />
			<path
			   d="m 39652.5,9307.1 c 0,-1056.9 -516.9,-1553 -1618.4,-1553 h -798.2 c -1101.4,0 -1618.4,496.1 -1618.4,1553 v 5996.5 h 1768.7 V 9186.8 h 497.6 v 6116.8 h 1768.7 V 9307.1"
			   style="fill:#181210;fill-opacity:1;fill-rule:nonzero;stroke:none"
			   id="path38" />
			<path
			   d="m 41949.2,13578 v -1240.3 h 852.7 v -1509.9 h -852.7 V 9479.7 h 1077.4 V 7754.1 H 40182 v 7549.5 h 2844.6 V 13578 h -1077.4"
			   style="fill:#181210;fill-opacity:1;fill-rule:nonzero;stroke:none"
			   id="path40" />
			<path
			   d="m 43466.8,9526.4 1623.9,975.9 V 9186.8 h 500 v 1371.4 l -1219.3,625.5 c -719.3,345.1 -904.6,733.4 -904.6,1520.7 v 1177.2 c 0,938.3 528.2,1445.2 1506,1445.2 h 848.1 c 977.8,0 1506,-506.9 1506,-1445.2 v -241.7 L 45703,12663.2 v 1207.6 h -499.9 v -1263.5 l 1157.2,-625.5 c 719.3,-345.1 966.6,-733.4 966.6,-1520.7 V 9176 c 0,-938.3 -528.2,-1445.2 -1506,-1445.2 h -848.1 c -977.8,0 -1506,506.9 -1506,1445.2 v 350.4"
			   style="fill:#181210;fill-opacity:1;fill-rule:nonzero;stroke:none"
			   id="path42" />
			<path
			   d="m 33241.4,9186.8 h -496.9 v 4684 h 496.9 z m 1737.4,-351.7 c 15.3,65.7 38.2,252.5 38.2,446.1 0,117.4 0.1,4492.6 0.1,4492.6 0,1056.9 -521.8,1553 -1623.2,1553 h -802.2 c -1101.4,0 -1621.4,-496.1 -1621.4,-1553 V 9283.9 c 0,-1056.9 520,-1553.1 1621.4,-1553.1 h 802.2 c 292,0 547.2,35.3 758.3,106.2 71.4,24 138,52.3 200.3,84.6 11.1,-7.2 21.6,-15 32.9,-21.9 188.4,-114.6 410.2,-168.1 633.3,-168.4 l 408.3,-0.5 v 1341.6 h -507 l 58.8,-237.3"
			   style="fill:#181210;fill-opacity:1;fill-rule:nonzero;stroke:none"
			   id="path44" />
			<path
			   d="m 46588.4,22347.4 -2357.1,-1417.5 c -26.3,-15.8 -59.8,3.2 -59.7,34 l -1.2,1394 c 0.1,30.7 -33.5,49.8 -59.8,33.9 l -1251.1,-754 c -26.4,-15.9 -59.9,3.2 -59.7,33.9 l -0.9,712.6 c 0.1,39.5 -36.6,50.8 -67,32.5 l -3111.1,-1893.4 c -27.9,-17 -63.6,5.4 -60,37.8 219.3,1946.1 1870.6,3458.7 3876.1,3458.7 1288.1,0 2429.6,-624.6 3140.1,-1586.7 0,0 5.6,-7.7 21.8,-29.4 13.6,-18.3 7.2,-45.9 -10.4,-56.4"
			   style="fill:#66c430;fill-opacity:1;fill-rule:nonzero;stroke:none"
			   id="path46" />
			<path
			   d="m 42905.2,17613.1 v 2238.5 c 0.1,30.7 -33.4,49.8 -59.8,34 l -949,-573.4 c -29.1,-15.7 -59,6.1 -59,33.9 l 0.7,1376.5 c 0.3,31.1 -33.8,50.2 -60.2,33.8 l -2125.3,-1321 c -39.3,-23.6 -48,-51.8 -40.2,-90.2 364,-1791.6 1936.7,-3125.1 3822.9,-3125.1 2109.8,0 3899.9,1693.2 3899.9,3916.7 0,28 -30.2,48.9 -57.7,34.5 l -4315.1,-2593.8 c -23.8,-12.6 -57.2,3.5 -57.2,35.6"
			   style="fill:#2bb34b;fill-opacity:1;fill-rule:nonzero;stroke:none"
			   id="path48" />
		</g>
	</g>
</svg>
